<svg width="30" height="28" viewBox="0 0 30 28" fill="none" xmlns="http://www.w3.org/2000/svg">
<path d="M7.844 13C8.91867 13 9.888 12.4053 10.552 11.56C11.587 10.2395 12.8863 9.14958 14.3667 8.36C15.3307 7.848 16.1667 7.08533 16.5707 6.07333C16.8544 5.36433 17.0001 4.60767 17 3.844V3C17 2.73478 17.1053 2.48043 17.2929 2.29289C17.4804 2.10536 17.7348 2 18 2C18.7956 2 19.5587 2.31607 20.1213 2.87868C20.6839 3.44129 21 4.20435 21 5C21 6.536 20.6533 7.99067 20.036 9.29067C19.6813 10.0347 20.1787 11 21.0027 11M21.0027 11H25.1707C26.5386 11 27.764 11.9253 27.9093 13.2867C27.9693 13.8493 28 14.42 28 15C28.0055 18.6485 26.7587 22.1883 24.468 25.028C23.9507 25.6707 23.152 26 22.328 26H16.9733C16.3293 26 15.688 25.896 15.076 25.6933L10.924 24.3067C10.3121 24.1032 9.67148 23.9996 9.02667 24H6.872M21.0027 11H18M6.872 24C6.98267 24.2733 7.10267 24.54 7.232 24.8027C7.49467 25.336 7.128 26 6.53467 26H5.324C4.13867 26 3.04 25.3093 2.69467 24.176C2.23286 22.6603 1.99875 21.0845 2 19.5C2 17.4293 2.39334 15.452 3.108 13.636C3.516 12.604 4.556 12 5.66667 12H7.07067C7.7 12 8.064 12.7413 7.73733 13.28C6.59852 15.1546 5.9979 17.3066 6.00133 19.5C6.00133 21.092 6.31067 22.6107 6.87333 24H6.872Z" stroke="white" stroke-width="2.5" stroke-linecap="round" stroke-linejoin="round"/>
</svg>
