<svg width="28" height="30" viewBox="0 0 28 30" fill="none" xmlns="http://www.w3.org/2000/svg">
<path d="M16.3067 27.3333C16.0723 27.7374 15.7358 28.0729 15.331 28.306C14.9261 28.5392 14.4672 28.6619 14 28.6619C13.5328 28.6619 13.0739 28.5392 12.669 28.306C12.2642 28.0729 11.9277 27.7374 11.6933 27.3333" stroke="white" stroke-width="2.2" stroke-linecap="round" stroke-linejoin="round"/>
<path d="M22 10C22 7.87827 21.1571 5.84344 19.6569 4.34315C18.1566 2.84285 16.1217 2 14 2C11.8783 2 9.84344 2.84285 8.34315 4.34315C6.84286 5.84344 6 7.87827 6 10C6 19.3333 2 22 2 22H26C26 22 22 19.3333 22 10Z" stroke="white" stroke-width="2.2" stroke-linecap="round" stroke-linejoin="round"/>
</svg>
